<svg xmlns="http://www.w3.org/2000/svg" xmlns:xlink="http://www.w3.org/1999/xlink" viewBox="0,0,256,256" width="30px" height="30px" fill-rule="nonzero"><g fill="#fdc435" fill-rule="nonzero" stroke="none" stroke-width="1" stroke-linecap="butt" stroke-linejoin="miter" stroke-miterlimit="10" stroke-dasharray="" stroke-dashoffset="0" font-family="none" font-weight="none" font-size="none" text-anchor="none" style="mix-blend-mode: normal"><g transform="scale(4,4)"><path d="M5,4c-1.65234,0 -3,1.34766 -3,3v40c0,1.65234 1.34766,3 3,3h19v2h-7.33984c-1.33984,0 -2.58984,0.51953 -3.53906,1.46094l-5.12109,5.12891c-0.57031,0.57031 -0.73828,1.42969 -0.42969,2.17969c0.30859,0.75 1.03125,1.23047 1.83984,1.23047h45.17969c0.80859,0 1.53125,-0.48047 1.83984,-1.23047c0.30859,-0.75 0.14063,-1.60937 -0.42969,-2.17969l-5.12109,-5.12891c-0.94922,-0.94141 -2.19922,-1.46094 -3.53906,-1.46094h-7.33984v-2h19c1.65234,0 3,-1.34766 3,-3v-40c0,-1.65234 -1.34766,-3 -3,-3zM5,6h54c0.55078,0 1,0.44922 1,1v40c0,0.55078 -0.44922,1 -1,1h-54c-0.55078,0 -1,-0.44922 -1,-1v-40c0,-0.55078 0.44922,-1 1,-1zM9,10c-0.55078,0 -1,0.44531 -1,1v32c0,0.55469 0.44922,1 1,1h46c0.55078,0 1,-0.44531 1,-1v-32c0,-0.55469 -0.44922,-1 -1,-1zM10,12h44v30h-44zM24,16c-0.25391,0 -0.51172,0.09766 -0.70703,0.29297l-8,8c-0.39062,0.39063 -0.39062,1.02344 0,1.41406l8,8c0.19531,0.19531 0.44922,0.29297 0.70703,0.29297c0.25781,0 0.51172,-0.09766 0.70703,-0.29297c0.39063,-0.39062 0.39063,-1.02344 0,-1.41406l-7.29297,-7.29297l7.29297,-7.29297c0.39063,-0.39062 0.39063,-1.02344 0,-1.41406c-0.19531,-0.19531 -0.45312,-0.29297 -0.70703,-0.29297zM40,16c-0.25391,0 -0.51172,0.09766 -0.70703,0.29297c-0.39062,0.39063 -0.39062,1.02344 0,1.41406l7.29297,7.29297l-7.29297,7.29297c-0.39062,0.39063 -0.39062,1.02344 0,1.41406c0.19531,0.19531 0.44922,0.29297 0.70703,0.29297c0.25781,0 0.51172,-0.09766 0.70703,-0.29297l8,-8c0.39063,-0.39062 0.39063,-1.02344 0,-1.41406l-8,-8c-0.19531,-0.19531 -0.45312,-0.29297 -0.70703,-0.29297zM12,36c-0.55078,0 -1,0.44531 -1,1v2c0,0.55469 0.44922,1 1,1c0.55078,0 1,-0.44531 1,-1v-2c0,-0.55469 -0.44922,-1 -1,-1zM17,36c-0.55078,0 -1,0.44531 -1,1v2c0,0.55469 0.44922,1 1,1c0.55078,0 1,-0.44531 1,-1v-2c0,-0.55469 -0.44922,-1 -1,-1zM22,36c-0.55078,0 -1,0.44531 -1,1v2c0,0.55469 0.44922,1 1,1c0.55078,0 1,-0.44531 1,-1v-2c0,-0.55469 -0.44922,-1 -1,-1zM27,36c-0.55078,0 -1,0.44531 -1,1v2c0,0.55469 0.44922,1 1,1c0.55078,0 1,-0.44531 1,-1v-2c0,-0.55469 -0.44922,-1 -1,-1zM32,36c-0.55078,0 -1,0.44531 -1,1v2c0,0.55469 0.44922,1 1,1c0.55078,0 1,-0.44531 1,-1v-2c0,-0.55469 -0.44922,-1 -1,-1zM37,36c-0.55078,0 -1,0.44531 -1,1v2c0,0.55469 0.44922,1 1,1c0.55078,0 1,-0.44531 1,-1v-2c0,-0.55469 -0.44922,-1 -1,-1zM42,36c-0.55078,0 -1,0.44531 -1,1v2c0,0.55469 0.44922,1 1,1c0.55078,0 1,-0.44531 1,-1v-2c0,-0.55469 -0.44922,-1 -1,-1zM47,36c-0.55078,0 -1,0.44531 -1,1v2c0,0.55469 0.44922,1 1,1c0.55078,0 1,-0.44531 1,-1v-2c0,-0.55469 -0.44922,-1 -1,-1zM52,36c-0.55078,0 -1,0.44531 -1,1v2c0,0.55469 0.44922,1 1,1c0.55078,0 1,-0.44531 1,-1v-2c0,-0.55469 -0.44922,-1 -1,-1zM26,50h12v6h-12zM16.66016,54h7.33984v2c0,1.10156 0.89844,2 2,2h12c1.10156,0 2,-0.89844 2,-2v-2h7.33984c0.78906,0 1.57031,0.32031 2.12109,0.87891l5.12891,5.12109h-45.17969l5.12891,-5.12109c0.55078,-0.55859 1.33203,-0.87891 2.12109,-0.87891z"></path></g></g></svg>