<svg fill="#none" xmlns="http://www.w3.org/2000/svg" viewBox="0 0 120 120"  width="120px" height="120px">
<g id='css'>

<g fill="#fdc435" fill-rule="nonzero" stroke="none" stroke-width="1" stroke-linecap="butt" stroke-linejoin="miter" stroke-miterlimit="10" stroke-dasharray="" stroke-dashoffset="0" font-family="none" font-weight="none" font-size="none" text-anchor="none" style="mix-blend-mode: normal"><g transform="scale(4,4)"><path d="M7.01953,4c-1.78906,0 -3.21392,1.58909 -2.99805,3.36523l5.4668,45.24414c0.24235,2.00251 1.67371,3.66806 3.61914,4.2207l17.53516,4.97852c0.88309,0.25035 1.81944,0.25622 2.70703,0.01563l18.44141,-4.99609c2.00844,-0.5438 3.48215,-2.2704 3.68945,-4.33594l4.54883,-45.1875c0.17705,-1.75712 -1.23764,-3.30469 -3.00391,-3.30469zM7.01953,6h50.00586c0.62373,0 1.07462,0.50059 1.01367,1.10547l-0.14453,1.43555c-0.17137,-0.34463 -0.52531,-0.56033 -0.91016,-0.55469c-0.55152,0.00862 -0.99193,0.46214 -0.98437,1.01367v2c-0.00481,0.37279 0.19813,0.71732 0.52653,0.89383c0.32839,0.17651 0.72771,0.1557 1.03597,-0.05398l-4.07227,40.45117c0,0.00065 0,0.0013 0,0.00195c-0.1247,1.24246 -1.00115,2.27527 -2.2207,2.60547c-0.00065,0 -0.0013,0 -0.00195,0l-18.44141,4.99609c-0.53641,0.1454 -1.10181,0.14192 -1.63672,-0.00977l-17.53516,-4.97852c-1.18056,-0.33536 -2.03404,-1.33362 -2.17969,-2.53711l-4.88672,-40.44531c0.31155,0.14089 0.67348,0.11285 0.95961,-0.07434c0.28613,-0.18719 0.4568,-0.50759 0.4525,-0.84948v-2c0.0037,-0.2703 -0.10218,-0.53059 -0.29351,-0.72155c-0.19133,-0.19097 -0.45182,-0.29634 -0.72212,-0.29212c-0.33023,0.00543 -0.63648,0.17354 -0.81836,0.44922l-0.1582,-1.31055c0,-0.00065 0,-0.0013 0,-0.00195c-0.07412,-0.60986 0.38078,-1.12305 1.01172,-1.12305zM11.98438,7.98633c-0.55152,0.00862 -0.99193,0.46214 -0.98437,1.01367v2c-0.0051,0.36064 0.18438,0.69608 0.49587,0.87789c0.3115,0.18181 0.69676,0.18181 1.00825,0c0.3115,-0.18181 0.50097,-0.51725 0.49587,-0.87789v-2c0.0037,-0.2703 -0.10218,-0.53059 -0.29351,-0.72155c-0.19133,-0.19097 -0.45182,-0.29634 -0.72212,-0.29212zM16.98438,7.98633c-0.55152,0.00862 -0.99193,0.46214 -0.98437,1.01367v2c-0.0051,0.36064 0.18438,0.69608 0.49587,0.87789c0.3115,0.18181 0.69676,0.18181 1.00825,0c0.3115,-0.18181 0.50097,-0.51725 0.49587,-0.87789v-2c0.0037,-0.2703 -0.10218,-0.53059 -0.29351,-0.72155c-0.19133,-0.19097 -0.45182,-0.29634 -0.72212,-0.29212zM21.98438,7.98633c-0.55152,0.00862 -0.99193,0.46214 -0.98437,1.01367v2c-0.0051,0.36064 0.18438,0.69608 0.49587,0.87789c0.3115,0.18181 0.69676,0.18181 1.00825,0c0.3115,-0.18181 0.50097,-0.51725 0.49587,-0.87789v-2c0.0037,-0.2703 -0.10218,-0.53059 -0.29351,-0.72155c-0.19133,-0.19097 -0.45182,-0.29634 -0.72212,-0.29212zM26.98438,7.98633c-0.55152,0.00862 -0.99193,0.46214 -0.98437,1.01367v2c-0.0051,0.36064 0.18438,0.69608 0.49587,0.87789c0.3115,0.18181 0.69676,0.18181 1.00825,0c0.3115,-0.18181 0.50097,-0.51725 0.49587,-0.87789v-2c0.0037,-0.2703 -0.10218,-0.53059 -0.29351,-0.72155c-0.19133,-0.19097 -0.45182,-0.29634 -0.72212,-0.29212zM31.98438,7.98633c-0.55152,0.00862 -0.99193,0.46214 -0.98437,1.01367v2c-0.0051,0.36064 0.18438,0.69608 0.49587,0.87789c0.3115,0.18181 0.69676,0.18181 1.00825,0c0.3115,-0.18181 0.50097,-0.51725 0.49587,-0.87789v-2c0.0037,-0.2703 -0.10218,-0.53059 -0.29351,-0.72155c-0.19133,-0.19097 -0.45182,-0.29634 -0.72212,-0.29212zM36.98438,7.98633c-0.55152,0.00862 -0.99193,0.46214 -0.98437,1.01367v2c-0.0051,0.36064 0.18438,0.69608 0.49587,0.87789c0.3115,0.18181 0.69676,0.18181 1.00825,0c0.3115,-0.18181 0.50097,-0.51725 0.49587,-0.87789v-2c0.0037,-0.2703 -0.10218,-0.53059 -0.29351,-0.72155c-0.19133,-0.19097 -0.45182,-0.29634 -0.72212,-0.29212zM41.98438,7.98633c-0.55152,0.00862 -0.99193,0.46214 -0.98437,1.01367v2c-0.0051,0.36064 0.18438,0.69608 0.49587,0.87789c0.3115,0.18181 0.69676,0.18181 1.00825,0c0.3115,-0.18181 0.50097,-0.51725 0.49587,-0.87789v-2c0.0037,-0.2703 -0.10218,-0.53059 -0.29351,-0.72155c-0.19133,-0.19097 -0.45182,-0.29634 -0.72212,-0.29212zM46.98438,7.98633c-0.55152,0.00862 -0.99193,0.46214 -0.98437,1.01367v2c-0.0051,0.36064 0.18438,0.69608 0.49587,0.87789c0.3115,0.18181 0.69676,0.18181 1.00825,0c0.3115,-0.18181 0.50097,-0.51725 0.49587,-0.87789v-2c0.0037,-0.2703 -0.10218,-0.53059 -0.29351,-0.72155c-0.19133,-0.19097 -0.45182,-0.29634 -0.72212,-0.29212zM51.98438,7.98633c-0.55152,0.00862 -0.99193,0.46214 -0.98437,1.01367v2c-0.0051,0.36064 0.18438,0.69608 0.49587,0.87789c0.3115,0.18181 0.69676,0.18181 1.00825,0c0.3115,-0.18181 0.50097,-0.51725 0.49587,-0.87789v-2c0.0037,-0.2703 -0.10218,-0.53059 -0.29351,-0.72155c-0.19133,-0.19097 -0.45182,-0.29634 -0.72212,-0.29212zM17,16c-1.209,0 -2.16362,1.11546 -1.97461,2.31055l0.76367,4.8457c0.07683,0.48538 0.49491,0.84303 0.98633,0.84375h23.47266l-0.47266,4h-14.77539c-0.55226,0.00006 -0.99994,0.44774 -1,1v6c0.00006,0.55226 0.44774,0.99994 1,1h13.83008l-0.69141,5.85938l-6.0293,1.83789l-5.26953,-1.78516l-0.34961,-2.22266c0,-0.00065 0,-0.0013 0,-0.00195c-0.15286,-0.96477 -0.99751,-1.6875 -1.97461,-1.6875h-4.04883c-1.21009,0 -2.16355,1.1158 -1.97656,2.31055c0,0.00065 0,0.0013 0,0.00195l1.01367,6.4375c0.11438,0.72644 0.6267,1.33644 1.32617,1.57227l10.55273,3.57422c0.00065,0 0.0013,0 0.00195,0c0.20215,0.06802 0.41597,0.10352 0.62891,0.10352c0.19324,0 0.38565,-0.02914 0.57227,-0.08594l11.64453,-3.54687c0.75169,-0.22913 1.30181,-0.88732 1.39258,-1.66992l2.89063,-24.46094l0.47461,-4.01953c0.13715,-1.16279 -0.79993,-2.2168 -1.9707,-2.2168zM17,18h30l-0.47266,4l-2.88867,24.45508l-11.625,3.54297l-10.53516,-3.56836l-1.01172,-6.42773v-0.00195h4.04883l0.44336,2.82031c0.05823,0.36737 0.31554,0.67208 0.66797,0.79102l6.14648,2.08203c0.19776,0.06699 0.41153,0.07041 0.61133,0.00977l6.96094,-2.12109c0.38047,-0.11531 0.65651,-0.44503 0.70313,-0.83984l0.90039,-7.625c0.03346,-0.28383 -0.05611,-0.56842 -0.2461,-0.78192c-0.18999,-0.2135 -0.46224,-0.33553 -0.74804,-0.33526h-13.95508v-4h14.66406c0.50733,0.00048 0.93464,-0.37898 0.99414,-0.88281l0.70898,-6c0.03346,-0.28383 -0.05611,-0.56842 -0.2461,-0.78192c-0.18999,-0.2135 -0.46224,-0.33553 -0.74804,-0.33526h-23.74219zM42.00586,52.25977c-0.09055,0.00085 -0.18057,0.01399 -0.26758,0.03906l-2,0.54102c-0.35379,0.08544 -0.63324,0.35633 -0.72963,0.7073c-0.09639,0.35097 0.0055,0.72659 0.26603,0.98074c0.26053,0.25415 0.63856,0.3467 0.98704,0.24164l2,-0.54102c0.48935,-0.12565 0.80814,-0.59655 0.74303,-1.09757c-0.06511,-0.50102 -0.49367,-0.87479 -0.99889,-0.87118zM26.97656,53.5332c-0.49845,0.0066 -0.91593,0.37927 -0.97885,0.87378c-0.06292,0.49451 0.24794,0.95985 0.72885,1.09106l5.29688,1.50391l4.23828,-1.14844c0.35379,-0.08544 0.63323,-0.35634 0.72962,-0.7073c0.09639,-0.35096 -0.0055,-0.72658 -0.26603,-0.98073c-0.26053,-0.25415 -0.63855,-0.3467 -0.98702,-0.24165l-3.70117,1.00391l-4.76367,-1.35352c-0.09634,-0.02851 -0.19642,-0.04233 -0.29688,-0.04102z"></path></g></g>
</g>
<g id="figma">

<g fill="#fdc435" fill-rule="nonzero" stroke="none" stroke-width="1" stroke-linecap="butt" stroke-linejoin="miter" stroke-miterlimit="10" stroke-dasharray="" stroke-dashoffset="0" font-family="none" font-weight="none" font-size="none" text-anchor="none" style="mix-blend-mode: normal"><g transform="scale(3.2,3.2)"><path d="M29.5,4c-6.89149,0 -12.5,5.60851 -12.5,12.5c0,5.15849 3.14449,9.59334 7.61523,11.5c-4.47075,1.90666 -7.61523,6.34151 -7.61523,11.5c0,5.0771 3.06923,9.41824 7.42773,11.37305c-4.91018,1.85894 -8.42773,6.57399 -8.42773,12.12695c0,7.16752 5.83248,13 13,13c7.16752,0 13,-5.83248 13,-13v-12v-10.39453c0.06039,6.28807 5.17648,11.39453 11.47852,11.39453c6.33943,0 11.5,-5.16057 11.5,-11.5c0,-6.33943 -5.16057,-11.5 -11.5,-11.5c-6.30203,0 -11.41812,5.10647 -11.47852,11.39453v-11.39453h10.5c6.89149,0 12.5,-5.60851 12.5,-12.5c0,-6.89149 -5.60851,-12.5 -12.5,-12.5h-11.5zM29.5,6h10.5v21h-10.5c-5.81051,0 -10.5,-4.68949 -10.5,-10.5c0,-5.81051 4.68949,-10.5 10.5,-10.5zM42,6h10.5c5.81051,0 10.5,4.68949 10.5,10.5c0,5.81051 -4.68949,10.5 -10.5,10.5h-10.5zM50.21094,9c-0.55,0 -1,0.45 -1,1c0,0.55 0.45,1 1,1c0.55,0 1,-0.45 1,-1c0,-0.55 -0.45,-1 -1,-1zM45.90234,9.00391c-0.0975,0.01013 -0.1932,0.03617 -0.2832,0.07617c-0.12,0.05 -0.23008,0.11898 -0.33008,0.20898c-0.18,0.189 -0.28906,0.45094 -0.28906,0.71094c0,0.13 0.03008,0.26086 0.08008,0.38086c0.05,0.12 0.11899,0.22908 0.20898,0.33008c0.1,0.09 0.21008,0.15898 0.33008,0.20898c0.12,0.05 0.25086,0.08008 0.38086,0.08008c0.13,0 0.26086,-0.03008 0.38086,-0.08008c0.12,-0.05 0.23008,-0.11899 0.33008,-0.20898c0.19,-0.19 0.28906,-0.44094 0.28906,-0.71094c0,-0.26 -0.10906,-0.52098 -0.28906,-0.70898c-0.05,-0.04 -0.10039,-0.08914 -0.15039,-0.11914c-0.06,-0.04 -0.11969,-0.0718 -0.17969,-0.0918c-0.06,-0.031 -0.12164,-0.04955 -0.18164,-0.06055c-0.1,-0.0205 -0.19937,-0.02575 -0.29687,-0.01562zM54.24609,9.27148c-0.38578,0.04195 -0.7257,0.31028 -0.8457,0.70703c-0.16,0.53 0.13992,1.09 0.66992,1.25c0.1,0.031 0.1893,0.04201 0.2793,0.04101c0.44,0 0.83094,-0.27994 0.96094,-0.71094c0.16,-0.529 -0.13992,-1.09 -0.66992,-1.25c-0.1325,-0.04 -0.26594,-0.05109 -0.39453,-0.03711zM57.86133,11.63281c-0.25375,-0.03763 -0.52219,0.023 -0.74219,0.1875c-0.44,0.33 -0.53898,0.96139 -0.20898,1.40039c0.2,0.259 0.50055,0.39844 0.81055,0.39844c0.2,0 0.40984,-0.05945 0.58984,-0.18945c0.45,-0.33 0.53898,-0.95944 0.20898,-1.39844c-0.165,-0.225 -0.40445,-0.36081 -0.6582,-0.39844zM59,15.51953c-0.55,0 -1,0.44 -1,1c0,0.549 0.44,1 1,1c0.55,0 1,-0.45 1,-1c0,-0.55 -0.44,-1 -1,-1zM29.5,29h10.5v21h-10.5c-5.81051,0 -10.5,-4.68949 -10.5,-10.5c0,-5.81051 4.68949,-10.5 10.5,-10.5zM53.47852,31c5.25855,0 9.5,4.24145 9.5,9.5c0,5.25855 -4.24145,9.5 -9.5,9.5c-5.25855,0 -9.5,-4.24145 -9.5,-9.5c0,-5.25855 4.24145,-9.5 9.5,-9.5zM56.91797,35.28711c-0.25625,0.02362 -0.50274,0.14352 -0.67773,0.35352c-0.35,0.42 -0.30109,1.05016 0.12891,1.41016c0.18,0.15 0.41063,0.22852 0.64063,0.22852c0.28,0 0.56977,-0.11937 0.75977,-0.35937c0.36,-0.42 0.30086,-1.05016 -0.11914,-1.41016c-0.21,-0.1745 -0.47617,-0.24628 -0.73242,-0.22266zM58.7207,38.55078c-0.55,0.09 -0.91055,0.61016 -0.81055,1.16016c0.08,0.479 0.51047,0.81931 0.98047,0.82031c0.06,0 0.11969,-0.01148 0.17969,-0.02148c0.54,-0.089 0.90055,-0.61039 0.81055,-1.15039c-0.1,-0.55 -0.62016,-0.90859 -1.16016,-0.80859zM58.37305,42.23633c-0.38672,-0.04617 -0.77992,0.13489 -0.98242,0.49414c-0.28,0.48 -0.11062,1.08914 0.35938,1.36914c0.16,0.089 0.33,0.12986 0.5,0.13086c0.35,0 0.67914,-0.18 0.86914,-0.5c0.27,-0.479 0.11086,-1.09109 -0.36914,-1.37109c-0.12,-0.0675 -0.24805,-0.10766 -0.37695,-0.12305zM55.43359,44.66016c-0.12953,-0.00583 -0.26453,0.0133 -0.39453,0.06055c-0.52,0.19 -0.77984,0.76906 -0.58984,1.28906c0.15,0.4 0.53141,0.64939 0.94141,0.65039c0.11,0 0.22984,-0.02055 0.33984,-0.06055c0.52,-0.2 0.78984,-0.76806 0.58984,-1.28906c-0.1425,-0.39 -0.49812,-0.63291 -0.88672,-0.65039zM51.57617,44.68164c-0.39094,0.02255 -0.75172,0.27797 -0.88672,0.66797c-0.19,0.521 0.07961,1.08853 0.59961,1.26953c0.11,0.04 0.2318,0.06155 0.3418,0.06055c0.41,0 0.79945,-0.25016 0.93945,-0.66016c0.19,-0.519 -0.08961,-1.0903 -0.59961,-1.2793c-0.13,-0.04775 -0.26422,-0.06611 -0.39453,-0.05859zM29,52h0.5h10.5v11c0,6.08648 -4.91352,11 -11,11c-6.08648,0 -11,-4.91352 -11,-11c0,-6.08648 4.91352,-11 11,-11zM36,55.01172c-0.26,0 -0.52094,0.09234 -0.71094,0.27734c-0.18,0.189 -0.28906,0.45094 -0.28906,0.71094c0,0.27 0.09906,0.52094 0.28906,0.71094c0.19,0.189 0.44094,0.28906 0.71094,0.28906c0.27,0 0.52094,-0.10006 0.71094,-0.28906c0.19,-0.19 0.28906,-0.44094 0.28906,-0.71094c0,-0.26 -0.10906,-0.52194 -0.28906,-0.71094c-0.19,-0.185 -0.45094,-0.27734 -0.71094,-0.27734zM36,58.9707c-0.55,0 -1,0.45 -1,1c0,0.55 0.45,1 1,1c0.55,0 1,-0.45 1,-1c0,-0.55 -0.45,-1 -1,-1zM36.07031,62.89063c-0.55,-0.071 -1.05109,0.31938 -1.12109,0.85938c-0.07,0.55 0.32109,1.04914 0.87109,1.11914c0.04,0.01 0.07891,0.01172 0.12891,0.01172c0.49,0 0.92023,-0.37109 0.99023,-0.87109c0.07,-0.55 -0.31914,-1.04914 -0.86914,-1.11914zM34.32422,66.42773c-0.25375,0.025 -0.49883,0.14583 -0.67383,0.36133c-0.35,0.43 -0.29133,1.05916 0.13867,1.41016c0.18,0.15 0.41086,0.2217 0.63086,0.2207c0.29,0 0.57953,-0.12133 0.76953,-0.36133c0.35,-0.43 0.29133,-1.05916 -0.13867,-1.41016c-0.21,-0.1745 -0.47281,-0.2457 -0.72656,-0.2207zM24.03516,66.92188c-0.255,-0.00262 -0.51008,0.09356 -0.70508,0.28906c-0.4,0.39 -0.39977,1.02992 -0.00977,1.41992c0.2,0.2 0.44899,0.29883 0.70898,0.29883c0.26,0 0.51094,-0.09906 0.71094,-0.28906c0.39,-0.39 0.39,-1.02992 0,-1.41992c-0.195,-0.195 -0.45008,-0.2962 -0.70508,-0.29883zM31.32227,68.62695c-0.12937,-0.0093 -0.26258,0.00773 -0.39258,0.05273c-0.52,0.18 -0.79891,0.74853 -0.62891,1.26953c0.15,0.42 0.53922,0.68164 0.94922,0.68164c0.11,0 0.22031,-0.0225 0.32031,-0.0625c0.53,-0.17 0.80891,-0.73877 0.62891,-1.25977c-0.135,-0.39675 -0.48883,-0.65375 -0.87695,-0.68164zM27.22656,68.82617c-0.38156,0.06609 -0.70914,0.35867 -0.80664,0.76367c-0.12,0.53 0.21,1.06922 0.75,1.19922c0.07,0.01 0.15047,0.02148 0.23047,0.02148c0.45,0 0.85875,-0.31149 0.96875,-0.77148c0.12,-0.53 -0.21,-1.06922 -0.75,-1.19922c-0.1325,-0.0325 -0.26539,-0.0357 -0.39258,-0.01367z"></path></g></g>

</g>
<g id='javascript'>

<g fill="#none" fill-rule="nonzero" stroke="none" stroke-width="1" stroke-linecap="butt" stroke-linejoin="miter" stroke-miterlimit="10" stroke-dasharray="" stroke-dashoffset="0" font-family="none" font-weight="none" font-size="none" text-anchor="none" style="mix-blend-mode: normal"><g transform="scale(4,4)"><path d="M12.57617,6c-3.61259,0 -6.57617,2.96358 -6.57617,6.57617v38.84766c0,3.61259 2.96358,6.57617 6.57617,6.57617h38.84766c3.61238,0 6.57617,-2.96267 6.57617,-6.57422v-38.84961c0,-3.61238 -2.9638,-6.57617 -6.57617,-6.57617zM12.57617,8h38.84766c2.52163,0 4.57617,2.05455 4.57617,4.57617v38.84961c0,2.52045 -2.05455,4.57422 -4.57617,4.57422h-38.84766c-2.52141,0 -4.57617,-2.05477 -4.57617,-4.57617v-38.84766c0,-2.52141 2.05476,-4.57617 4.57617,-4.57617zM12,12c-0.552,0 -1,0.448 -1,1v2c0,0.552 0.448,1 1,1c0.552,0 1,-0.448 1,-1v-2c0,-0.552 -0.448,-1 -1,-1zM17,12c-0.552,0 -1,0.448 -1,1v2c0,0.552 0.448,1 1,1c0.552,0 1,-0.448 1,-1v-2c0,-0.552 -0.448,-1 -1,-1zM22,12c-0.552,0 -1,0.448 -1,1v2c0,0.552 0.448,1 1,1c0.552,0 1,-0.448 1,-1v-2c0,-0.552 -0.448,-1 -1,-1zM27,12c-0.552,0 -1,0.448 -1,1v2c0,0.552 0.448,1 1,1c0.552,0 1,-0.448 1,-1v-2c0,-0.552 -0.448,-1 -1,-1zM32,12c-0.552,0 -1,0.448 -1,1v2c0,0.552 0.448,1 1,1c0.552,0 1,-0.448 1,-1v-2c0,-0.552 -0.448,-1 -1,-1zM37,12c-0.552,0 -1,0.448 -1,1v2c0,0.552 0.448,1 1,1c0.552,0 1,-0.448 1,-1v-2c0,-0.552 -0.448,-1 -1,-1zM42,12c-0.552,0 -1,0.448 -1,1v2c0,0.552 0.448,1 1,1c0.552,0 1,-0.448 1,-1v-2c0,-0.552 -0.448,-1 -1,-1zM47,12c-0.552,0 -1,0.448 -1,1v2c0,0.552 0.448,1 1,1c0.552,0 1,-0.448 1,-1v-2c0,-0.552 -0.448,-1 -1,-1zM52,12c-0.552,0 -1,0.448 -1,1v2c0,0.552 0.448,1 1,1c0.552,0 1,-0.448 1,-1v-2c0,-0.552 -0.448,-1 -1,-1zM29.33203,30.11719c-0.55226,0.00006 -0.99994,0.44774 -1,1v14.48242c0,0.98374 -0.19534,1.39443 -0.33594,1.54297c-0.14059,0.14854 -0.38411,0.25 -0.99609,0.25c-1.13758,0 -1.86399,-0.63601 -2.46484,-1.6875c-0.13311,-0.23326 -0.35444,-0.40318 -0.61417,-0.47151c-0.25973,-0.06833 -0.53602,-0.02933 -0.76669,0.10823l-3.66797,2.19336c-0.4427,0.26508 -0.61106,0.82345 -0.38867,1.28906c1.21619,2.54232 4.1276,5.17578 8.17578,5.17578c2.17102,0 4.12809,-0.57715 5.54102,-1.89062c1.41292,-1.31347 2.18555,-3.30858 2.18555,-5.80859v-15.18359c-0.00006,-0.55226 -0.44774,-0.99994 -1,-1zM45.62695,30.11719c-4.27293,0 -7.29297,3.01408 -7.29297,6.80664c0,1.98056 0.6085,3.58786 1.66211,4.80078c1.05361,1.21292 2.48377,2.03213 4.09961,2.73633l1.07227,0.4707c0.96053,0.42969 1.62027,0.77318 1.93555,1.05273c0.31653,0.28066 0.39063,0.40743 0.39063,0.94727c0,0.38125 -0.10287,0.59612 -0.33398,0.79102c-0.23111,0.19489 -0.66127,0.37695 -1.38086,0.37695c-0.82779,0 -1.31807,-0.24301 -1.80469,-0.67578c-0.48662,-0.43277 -0.9262,-1.09493 -1.37695,-1.84766c-0.14152,-0.23646 -0.37433,-0.40405 -0.64348,-0.4632c-0.26915,-0.05915 -0.55078,-0.00463 -0.7784,0.1507l-3.37891,2.30273c-0.41164,0.28126 -0.55326,0.82275 -0.33203,1.26953c1.37736,2.78421 4.08124,5.16406 8.41602,5.16406c2.21758,0 4.2287,-0.58499 5.7207,-1.80273c1.492,-1.21775 2.39762,-3.08702 2.39648,-5.32031c-0.00043,-2.02167 -0.61747,-3.65915 -1.74805,-4.90039c-1.13062,-1.2413 -2.68613,-2.0958 -4.5625,-2.91797h-0.00195l-1.07031,-0.46875l-0.00195,-0.00195c-0.89516,-0.39679 -1.47333,-0.71991 -1.73437,-0.96289c-0.26139,-0.24331 -0.31055,-0.33123 -0.31055,-0.78906c0,-0.56756 0.23026,-0.88477 1.05664,-0.88477c0.47391,0 0.74394,0.08339 1.00977,0.26367c0.26583,0.18028 0.55689,0.50656 0.87891,1.09766c0.13376,0.24503 0.36385,0.423 0.63463,0.49088c0.27078,0.06788 0.55762,0.0195 0.79115,-0.13346l3.3457,-2.19727c0.43839,-0.28721 0.5807,-0.86413 0.32617,-1.32227c-1.55332,-2.79598 -4.01519,-4.0332 -6.98437,-4.0332zM30.33203,32.11719h2.66797v14.18359c0,2.10398 -0.5943,3.45822 -1.54687,4.34375c-0.95258,0.88553 -2.3587,1.35547 -4.17969,1.35547c-2.7602,0 -4.67701,-1.66509 -5.77148,-3.33984l1.98633,-1.1875c0.84484,1.04369 1.9568,1.91992 3.51172,1.91992c0.86902,0 1.79161,-0.18229 2.44727,-0.875c0.65566,-0.69271 0.88477,-1.67871 0.88477,-2.91797zM45.62695,32.11719c2.1294,0 3.45126,0.73276 4.60352,2.3125l-1.66211,1.09375c-0.26247,-0.33001 -0.47747,-0.73763 -0.8125,-0.96484c-0.62442,-0.42347 -1.36977,-0.60742 -2.13086,-0.60742c-1.69162,0 -3.05664,1.32033 -3.05664,2.88477c0,0.86117 0.35061,1.69671 0.94922,2.25391c0.59861,0.55719 1.34227,0.90864 2.28906,1.32813c0.00065,0.00065 0.0013,0.0013 0.00195,0.00195l1.07422,0.4707c1.77487,0.7776 3.07614,1.54152 3.88867,2.43359c0.81254,0.89207 1.22656,1.90633 1.22656,3.55469c0.00087,1.72071 -0.61291,2.91283 -1.66016,3.76758c-1.0473,0.8547 -2.59361,1.35352 -4.45703,1.35352c-3.23302,0 -5.00029,-1.39875 -6.16602,-3.32031l1.80859,-1.23242c0.33934,0.50776 0.63112,1.03321 1.12305,1.4707c0.77388,0.68823 1.8416,1.18164 3.13281,1.18164c1.06041,0 1.98853,-0.27305 2.66992,-0.84766c0.68139,-0.57461 1.04492,-1.44356 1.04492,-2.32031c0,-0.96717 -0.40798,-1.86127 -1.06445,-2.44336c-0.65648,-0.58209 -1.45989,-0.9428 -2.45313,-1.38672c-0.00195,-0.00066 -0.0039,-0.00131 -0.00586,-0.00195l-1.07422,-0.4707c-0.00065,-0.00065 -0.0013,-0.0013 -0.00195,-0.00195c-1.48416,-0.64681 -2.63483,-1.34926 -3.38672,-2.21484c-0.75189,-0.86558 -1.17383,-1.89184 -1.17383,-3.48828c0,-2.79944 1.8919,-4.80664 5.29297,-4.80664z"></path></g></g>

</g>

<g id='git'>
<g fill="#fdc435" fill-rule="nonzero" stroke="none" stroke-width="1" stroke-linecap="butt" stroke-linejoin="miter" stroke-miterlimit="10" stroke-dasharray="" stroke-dashoffset="0" font-family="none" font-weight="none" font-size="none" text-anchor="none" style="mix-blend-mode: normal"><g transform="scale(5.12,5.12)"><path d="M25,4c0.56641,0 1.09766,0.21875 1.49609,0.62109l18.88281,18.88281c0.82813,0.82422 0.82813,2.16797 0,2.99219l-18.88281,18.88281c-0.39844,0.40234 -0.92969,0.62109 -1.49609,0.62109c-0.56641,0 -1.09766,-0.21875 -1.49609,-0.62109l-18.88281,-18.88281c-0.82813,-0.82422 -0.82813,-2.16797 0,-2.99219l12.32031,-12.32031l2.27344,2.27344c-0.54687,2.03125 0.00391,4.24609 1.54297,5.78516c0.36719,0.36719 0.78516,0.68359 1.24219,0.94531v9.62891c-1.82031,1.05078 -3,3.00781 -3,5.18359c0,3.30859 2.69141,6 6,6c3.30859,0 6,-2.69141 6,-6c0,-2.17578 -1.17969,-4.13281 -3,-5.18359v-7.57422l1.21484,1.21484c-0.54687,2.03125 0.00391,4.24609 1.54297,5.78516c1.13281,1.13281 2.64063,1.75781 4.24219,1.75781c1.60156,0 3.10938,-0.625 4.24219,-1.75781c2.33984,-2.33984 2.33984,-6.14453 0,-8.48437c-1.12891,-1.12891 -2.625,-1.75 -4.22266,-1.75c-0.52734,0 -1.05469,0.07031 -1.5625,0.20703l-2.67187,-2.67187c0.54688,-2.03125 -0.00391,-4.24609 -1.54297,-5.78516c-1.12891,-1.12891 -2.625,-1.75 -4.22266,-1.75c-0.52734,0 -1.05469,0.07031 -1.5625,0.20703l-2.27344,-2.27344l2.32031,-2.32031c0.39844,-0.40234 0.92969,-0.62109 1.49609,-0.62109M25,2c-1.05469,0 -2.10937,0.40234 -2.91016,1.20703l-3.73437,3.73437l4.62109,4.62109c0.62891,-0.36719 1.33594,-0.55469 2.04297,-0.55469c1.01563,0 2.03125,0.38672 2.80859,1.16406c1.31641,1.31641 1.50781,3.31641 0.60547,4.84766l4.54297,4.54297c0.62891,-0.36719 1.33594,-0.55469 2.04297,-0.55469c1.01563,0 2.03125,0.38672 2.80859,1.16406c1.5625,1.5625 1.5625,4.09375 0,5.65625c-0.78125,0.78125 -1.80469,1.17188 -2.82812,1.17188c-1.02344,0 -2.04687,-0.39062 -2.82812,-1.17187c-1.31641,-1.31641 -1.50781,-3.31641 -0.60547,-4.85156l-4.54297,-4.54297c-0.32422,0.19141 -0.66797,0.33203 -1.02344,0.42188v12.28516c1.72266,0.44531 3,1.99609 3,3.85938c0,2.21094 -1.78906,4 -4,4c-2.20703,0 -4,-1.78906 -4,-4c0,-1.86328 1.27734,-3.41406 3,-3.85937v-12.28516c-0.66797,-0.17187 -1.30469,-0.50391 -1.82812,-1.02734c-1.31641,-1.31641 -1.50781,-3.31641 -0.60547,-4.84766l-4.625,-4.625l-13.73437,13.73438c-1.60938,1.60547 -1.60938,4.21484 0,5.82031l18.88281,18.88281c0.80078,0.80469 1.85547,1.20703 2.91016,1.20703c1.05469,0 2.10938,-0.40234 2.91016,-1.20703l18.88281,-18.88281c1.60938,-1.60547 1.60938,-4.21484 0,-5.82031l-18.88281,-18.88281c-0.80078,-0.80469 -1.85547,-1.20703 -2.91016,-1.20703z"></path></g></g>
</g>
<g id='github'>

<g fill="#fdc435" fill-rule="nonzero" stroke="none" stroke-width="1" stroke-linecap="butt" stroke-linejoin="miter" stroke-miterlimit="10" stroke-dasharray="" stroke-dashoffset="0" font-family="none" font-weight="none" font-size="none" text-anchor="none" style="mix-blend-mode: normal"><g transform="scale(5.12,5.12)"><path d="M17.791,46.836c0.711,-0.306 1.209,-1.013 1.209,-1.836v-5.4c0,-0.197 0.016,-0.402 0.041,-0.61c-0.014,0.004 -0.027,0.007 -0.041,0.01c0,0 -3,0 -3.6,0c-1.5,0 -2.8,-0.6 -3.4,-1.8c-0.7,-1.3 -1,-3.5 -2.8,-4.7c-0.3,-0.2 -0.1,-0.5 0.5,-0.5c0.6,0.1 1.9,0.9 2.7,2c0.9,1.1 1.8,2 3.4,2c2.487,0 3.82,-0.125 4.622,-0.555c0.934,-1.389 2.227,-2.445 3.578,-2.445v-0.025c-5.668,-0.182 -9.289,-2.066 -10.975,-4.975c-3.665,0.042 -6.856,0.405 -8.677,0.707c-0.058,-0.327 -0.108,-0.656 -0.151,-0.987c1.797,-0.296 4.843,-0.647 8.345,-0.714c-0.112,-0.276 -0.209,-0.559 -0.291,-0.849c-3.511,-0.178 -6.541,-0.039 -8.187,0.097c-0.02,-0.332 -0.047,-0.663 -0.051,-0.999c1.649,-0.135 4.597,-0.27 8.018,-0.111c-0.079,-0.5 -0.13,-1.011 -0.13,-1.543c0,-1.7 0.6,-3.5 1.7,-5c-0.5,-1.7 -1.2,-5.3 0.2,-6.6c2.7,0 4.6,1.3 5.5,2.1c1.699,-0.701 3.599,-1.101 5.699,-1.101c2.1,0 4,0.4 5.6,1.1c0.9,-0.8 2.8,-2.1 5.5,-2.1c1.5,1.4 0.7,5 0.2,6.6c1.1,1.5 1.7,3.2 1.6,5c0,0.484 -0.045,0.951 -0.11,1.409c3.499,-0.172 6.527,-0.034 8.204,0.102c-0.002,0.337 -0.033,0.666 -0.051,0.999c-1.671,-0.138 -4.775,-0.28 -8.359,-0.089c-0.089,0.336 -0.197,0.663 -0.325,0.98c3.546,0.046 6.665,0.389 8.548,0.689c-0.043,0.332 -0.093,0.661 -0.151,0.987c-1.912,-0.306 -5.171,-0.664 -8.879,-0.682c-1.665,2.878 -5.22,4.755 -10.777,4.974v0.031c2.6,0 5,3.9 5,6.6v5.4c0,0.823 0.498,1.53 1.209,1.836c9.161,-3.032 15.791,-11.672 15.791,-21.836c0,-12.682 -10.317,-23 -23,-23c-12.683,0 -23,10.318 -23,23c0,10.164 6.63,18.804 15.791,21.836z"></path></g></g>
</g>
<g id='html'>

<g fill="#fdc435" fill-rule="nonzero" stroke="none" stroke-width="1" stroke-linecap="butt" stroke-linejoin="miter" stroke-miterlimit="10" stroke-dasharray="" stroke-dashoffset="0" font-family="none" font-weight="none" font-size="none" text-anchor="none" style="mix-blend-mode: normal"><g transform="scale(4,4)"><path d="M7.01953,4c-1.78906,0 -3.21392,1.58909 -2.99805,3.36523l5.4668,45.24414c0.24235,2.00251 1.67371,3.66806 3.61914,4.2207l17.53516,4.97852c0.88309,0.25035 1.81944,0.25622 2.70703,0.01563l18.44141,-4.99609c2.00844,-0.5438 3.48215,-2.2704 3.68945,-4.33594l4.54883,-45.1875c0.17705,-1.75712 -1.23764,-3.30469 -3.00391,-3.30469zM7.01953,6h50.00586c0.62373,0 1.07462,0.50059 1.01367,1.10547l-0.14453,1.43555c-0.17137,-0.34463 -0.52531,-0.56033 -0.91016,-0.55469c-0.55152,0.00862 -0.99193,0.46214 -0.98437,1.01367v2c-0.00481,0.37279 0.19813,0.71732 0.52653,0.89383c0.32839,0.17651 0.72771,0.1557 1.03597,-0.05398l-4.07227,40.45117c0,0.00065 0,0.0013 0,0.00195c-0.1247,1.24246 -1.00115,2.27527 -2.2207,2.60547c-0.00065,0 -0.0013,0 -0.00195,0l-18.44141,4.99609c-0.53641,0.1454 -1.10181,0.14192 -1.63672,-0.00977l-17.53516,-4.97852c-1.18056,-0.33536 -2.03404,-1.33362 -2.17969,-2.53711l-4.88672,-40.44531c0.31155,0.14089 0.67348,0.11285 0.95961,-0.07434c0.28613,-0.18719 0.4568,-0.50759 0.4525,-0.84948v-2c0.0037,-0.2703 -0.10218,-0.53059 -0.29351,-0.72155c-0.19133,-0.19097 -0.45182,-0.29634 -0.72212,-0.29212c-0.33023,0.00543 -0.63648,0.17354 -0.81836,0.44922l-0.1582,-1.31055c0,-0.00065 0,-0.0013 0,-0.00195c-0.07412,-0.60986 0.38078,-1.12305 1.01172,-1.12305zM11.98438,7.98633c-0.55152,0.00862 -0.99193,0.46214 -0.98437,1.01367v2c-0.0051,0.36064 0.18438,0.69608 0.49587,0.87789c0.3115,0.18181 0.69676,0.18181 1.00825,0c0.3115,-0.18181 0.50097,-0.51725 0.49587,-0.87789v-2c0.0037,-0.2703 -0.10218,-0.53059 -0.29351,-0.72155c-0.19133,-0.19097 -0.45182,-0.29634 -0.72212,-0.29212zM16.98438,7.98633c-0.55152,0.00862 -0.99193,0.46214 -0.98437,1.01367v2c-0.0051,0.36064 0.18438,0.69608 0.49587,0.87789c0.3115,0.18181 0.69676,0.18181 1.00825,0c0.3115,-0.18181 0.50097,-0.51725 0.49587,-0.87789v-2c0.0037,-0.2703 -0.10218,-0.53059 -0.29351,-0.72155c-0.19133,-0.19097 -0.45182,-0.29634 -0.72212,-0.29212zM21.98438,7.98633c-0.55152,0.00862 -0.99193,0.46214 -0.98437,1.01367v2c-0.0051,0.36064 0.18438,0.69608 0.49587,0.87789c0.3115,0.18181 0.69676,0.18181 1.00825,0c0.3115,-0.18181 0.50097,-0.51725 0.49587,-0.87789v-2c0.0037,-0.2703 -0.10218,-0.53059 -0.29351,-0.72155c-0.19133,-0.19097 -0.45182,-0.29634 -0.72212,-0.29212zM26.98438,7.98633c-0.55152,0.00862 -0.99193,0.46214 -0.98437,1.01367v2c-0.0051,0.36064 0.18438,0.69608 0.49587,0.87789c0.3115,0.18181 0.69676,0.18181 1.00825,0c0.3115,-0.18181 0.50097,-0.51725 0.49587,-0.87789v-2c0.0037,-0.2703 -0.10218,-0.53059 -0.29351,-0.72155c-0.19133,-0.19097 -0.45182,-0.29634 -0.72212,-0.29212zM31.98438,7.98633c-0.55152,0.00862 -0.99193,0.46214 -0.98437,1.01367v2c-0.0051,0.36064 0.18438,0.69608 0.49587,0.87789c0.3115,0.18181 0.69676,0.18181 1.00825,0c0.3115,-0.18181 0.50097,-0.51725 0.49587,-0.87789v-2c0.0037,-0.2703 -0.10218,-0.53059 -0.29351,-0.72155c-0.19133,-0.19097 -0.45182,-0.29634 -0.72212,-0.29212zM36.98438,7.98633c-0.55152,0.00862 -0.99193,0.46214 -0.98437,1.01367v2c-0.0051,0.36064 0.18438,0.69608 0.49587,0.87789c0.3115,0.18181 0.69676,0.18181 1.00825,0c0.3115,-0.18181 0.50097,-0.51725 0.49587,-0.87789v-2c0.0037,-0.2703 -0.10218,-0.53059 -0.29351,-0.72155c-0.19133,-0.19097 -0.45182,-0.29634 -0.72212,-0.29212zM41.98438,7.98633c-0.55152,0.00862 -0.99193,0.46214 -0.98437,1.01367v2c-0.0051,0.36064 0.18438,0.69608 0.49587,0.87789c0.3115,0.18181 0.69676,0.18181 1.00825,0c0.3115,-0.18181 0.50097,-0.51725 0.49587,-0.87789v-2c0.0037,-0.2703 -0.10218,-0.53059 -0.29351,-0.72155c-0.19133,-0.19097 -0.45182,-0.29634 -0.72212,-0.29212zM46.98438,7.98633c-0.55152,0.00862 -0.99193,0.46214 -0.98437,1.01367v2c-0.0051,0.36064 0.18438,0.69608 0.49587,0.87789c0.3115,0.18181 0.69676,0.18181 1.00825,0c0.3115,-0.18181 0.50097,-0.51725 0.49587,-0.87789v-2c0.0037,-0.2703 -0.10218,-0.53059 -0.29351,-0.72155c-0.19133,-0.19097 -0.45182,-0.29634 -0.72212,-0.29212zM51.98438,7.98633c-0.55152,0.00862 -0.99193,0.46214 -0.98437,1.01367v2c-0.0051,0.36064 0.18438,0.69608 0.49587,0.87789c0.3115,0.18181 0.69676,0.18181 1.00825,0c0.3115,-0.18181 0.50097,-0.51725 0.49587,-0.87789v-2c0.0037,-0.2703 -0.10218,-0.53059 -0.29351,-0.72155c-0.19133,-0.19097 -0.45182,-0.29634 -0.72212,-0.29212zM17,16c-1.209,0 -2.16362,1.11546 -1.97461,2.31055l2.51953,16.00195c0.15286,0.96481 0.99947,1.6875 1.97656,1.6875h19.30859l-0.69141,5.85938l-6.0293,1.83789l-5.26953,-1.78516l-0.34961,-2.22266c0,-0.00065 0,-0.0013 0,-0.00195c-0.15286,-0.96477 -0.99751,-1.6875 -1.97461,-1.6875h-4.04883c-1.21009,0 -2.16355,1.1158 -1.97656,2.31055c0,0.00065 0,0.0013 0,0.00195l1.01367,6.4375c0.11438,0.72644 0.6267,1.33644 1.32617,1.57227l10.55273,3.57422c0.00065,0 0.0013,0 0.00195,0c0.20215,0.06802 0.41597,0.10352 0.62891,0.10352c0.19324,0 0.38565,-0.02914 0.57227,-0.08594l11.64453,-3.54687c0.75169,-0.22913 1.30181,-0.88732 1.39258,-1.66992l1.94336,-16.46094c0.1399,-1.17244 -0.80329,-2.23633 -1.98437,-2.23633h-20.93164l-0.63086,-4h22.50781c1.00474,0 1.86844,-0.76662 1.98633,-1.76562v-0.00195l0.47461,-4.01758c0.13739,-1.16281 -0.79993,-2.21484 -1.9707,-2.21484zM17,18h30l-0.47266,4h-22.50781c-1.21012,0 -2.16364,1.11725 -1.97461,2.3125l0.62891,4c0.15286,0.96481 0.99947,1.6875 1.97656,1.6875h20.92969l-1.94141,16.45508l-11.625,3.54297l-10.53516,-3.56836l-1.01172,-6.42773v-0.00195h4.04883l0.44336,2.82031c0.05823,0.36737 0.31554,0.67208 0.66797,0.79102l6.14648,2.08203c0.19776,0.06699 0.41153,0.07041 0.61133,0.00977l6.96094,-2.12109c0.38047,-0.11531 0.65651,-0.44503 0.70313,-0.83984l0.76758,-6.50781c0.1381,-1.17184 -0.80525,-2.23437 -1.98633,-2.23437h-19.30859zM42.00586,52.25977c-0.09055,0.00085 -0.18057,0.01399 -0.26758,0.03906l-2,0.54102c-0.35379,0.08544 -0.63324,0.35633 -0.72963,0.7073c-0.09639,0.35097 0.0055,0.72659 0.26603,0.98074c0.26053,0.25415 0.63856,0.3467 0.98704,0.24164l2,-0.54102c0.48935,-0.12565 0.80814,-0.59655 0.74303,-1.09757c-0.06511,-0.50102 -0.49367,-0.87479 -0.99889,-0.87118zM26.97656,53.5332c-0.49845,0.0066 -0.91593,0.37927 -0.97885,0.87378c-0.06292,0.49451 0.24794,0.95985 0.72885,1.09106l5.29688,1.50391l4.23828,-1.14844c0.35379,-0.08544 0.63323,-0.35634 0.72962,-0.7073c0.09639,-0.35096 -0.0055,-0.72658 -0.26603,-0.98073c-0.26053,-0.25415 -0.63855,-0.3467 -0.98702,-0.24165l-3.70117,1.00391l-4.76367,-1.35352c-0.09634,-0.02851 -0.19642,-0.04233 -0.29688,-0.04102z"></path></g></g>
</g>
<g id='react'>

<g fill="#fdc435" fill-rule="nonzero" stroke="none" stroke-width="1" stroke-linecap="butt" stroke-linejoin="miter" stroke-miterlimit="10" stroke-dasharray="" stroke-dashoffset="0" font-family="none" font-weight="none" font-size="none" text-anchor="none" style="mix-blend-mode: normal"><g transform="scale(4,4)"><path d="M50.25781,1.30078c-0.25225,0.04288 -0.48844,0.18125 -0.64844,0.40625l-1.1582,1.63281c-0.32,0.451 -0.21367,1.07453 0.23633,1.39453c0.176,0.125 0.37812,0.18555 0.57813,0.18555c0.313,0 0.62041,-0.14787 0.81641,-0.42187l1.1582,-1.63086c0.32,-0.451 0.21562,-1.07453 -0.23437,-1.39453c-0.226,-0.1605 -0.4958,-0.21475 -0.74805,-0.17187zM20.57617,5.17773c-1.2873,-0.03952 -2.50264,0.22004 -3.57617,0.83984c-1.71765,0.99169 -2.82022,2.76262 -3.375,4.92773c-0.55478,2.16512 -0.60218,4.76356 -0.21875,7.66797c0.12568,0.952 0.3148,1.94807 0.5332,2.96094c-0.98535,0.31704 -1.94167,0.64882 -2.82812,1.01563c-2.70701,1.12014 -4.9336,2.46042 -6.53125,4.02344c-1.59765,1.56301 -2.58008,3.40335 -2.58008,5.38672c0,1.98337 0.98242,3.8237 2.58008,5.38672c1.59765,1.56301 3.82424,2.9033 6.53125,4.02344c0.88645,0.36681 1.84278,0.69859 2.82813,1.01563c-0.21841,1.01287 -0.40752,2.00699 -0.5332,2.95898c-0.38343,2.90441 -0.33603,5.50285 0.21875,7.66797c0.55478,2.16512 1.65735,3.93605 3.375,4.92773c1.71765,0.99169 3.80264,1.06109 5.95508,0.45898c2.15244,-0.6021 4.42642,-1.86026 6.75,-3.64453c0.76133,-0.58462 1.52725,-1.24613 2.29492,-1.94141c0.76734,0.69493 1.53393,1.35704 2.29492,1.94141c2.32357,1.78427 4.59756,3.04243 6.75,3.64453c2.15244,0.60211 4.23743,0.5327 5.95508,-0.45898c1.71765,-0.99168 2.82022,-2.76262 3.375,-4.92773c0.55478,-2.16512 0.60218,-4.76356 0.21875,-7.66797c-0.12551,-0.95071 -0.31522,-1.94561 -0.5332,-2.95703c0.98555,-0.31708 1.94151,-0.6507 2.82813,-1.01758c2.70701,-1.12014 4.9336,-2.46042 6.53125,-4.02344c1.59765,-1.56301 2.58008,-3.40335 2.58008,-5.38672c0,-1.98337 -0.98242,-3.82371 -2.58008,-5.38672c-1.59765,-1.56301 -3.82424,-2.90329 -6.53125,-4.02344c-0.88662,-0.36688 -1.84258,-0.70049 -2.82812,-1.01758c0.21805,-1.01163 0.40767,-2.00614 0.5332,-2.95703c0.38343,-2.90441 0.33603,-5.50285 -0.21875,-7.66797c-0.55478,-2.16511 -1.65735,-3.93605 -3.375,-4.92773c-1.71765,-0.99169 -3.80264,-1.06109 -5.95508,-0.45898c-2.15243,0.6021 -4.42643,1.86027 -6.75,3.64453c-0.761,0.58437 -1.52758,1.24648 -2.29492,1.94141c-0.76768,-0.69528 -1.53359,-1.35874 -2.29492,-1.94336c-2.32358,-1.78427 -4.59756,-3.04243 -6.75,-3.64453c-0.80716,-0.22579 -1.60653,-0.35715 -2.37891,-0.38086zM53.90234,5.41016c-0.12936,0.01072 -0.25886,0.04733 -0.38086,0.11133l-1.77148,0.92773c-0.489,0.257 -0.67887,0.86356 -0.42187,1.35156c0.179,0.342 0.52672,0.53516 0.88672,0.53516c0.156,0 0.31489,-0.03628 0.46289,-0.11328l1.77148,-0.92969c0.489,-0.257 0.67887,-0.86161 0.42188,-1.34961c-0.19275,-0.3675 -0.58067,-0.56536 -0.96875,-0.5332zM20.5293,7.17188c0.58173,0.02049 1.21109,0.12546 1.88672,0.31445c1.80168,0.50399 3.88732,1.62987 6.06836,3.30469c0.67687,0.51977 1.36635,1.10939 2.05664,1.73047c-1.9785,1.96439 -3.94111,4.27863 -5.82227,6.86719c-3.18228,0.3348 -6.16697,0.87821 -8.85742,1.60938c-0.19279,-0.90859 -0.35898,-1.8002 -0.4707,-2.64648c-0.35991,-2.72625 -0.2925,-5.09591 0.17188,-6.9082c0.46438,-1.81229 1.28539,-3.02819 2.4375,-3.69336c0.72007,-0.41573 1.55975,-0.61227 2.5293,-0.57812zM43.46875,7.17383c0.96955,-0.03415 1.81118,0.16239 2.53125,0.57813c1.15211,0.66517 1.97312,1.87912 2.4375,3.69141c0.46438,1.81229 0.52983,4.18391 0.16992,6.91016c-0.11171,0.84619 -0.27599,1.73606 -0.46875,2.64453c-2.69045,-0.73117 -5.67514,-1.27457 -8.85742,-1.60937c-1.88099,-2.58856 -3.8439,-4.90073 -5.82227,-6.86523c0.69027,-0.62106 1.37783,-1.21071 2.05469,-1.73047c2.18104,-1.67482 4.26668,-2.80266 6.06836,-3.30664c0.67563,-0.18899 1.30499,-0.29201 1.88672,-0.3125zM55.42188,10.50977l-1.97852,0.29688c-0.546,0.082 -0.92184,0.59267 -0.83984,1.13867c0.075,0.497 0.50128,0.85156 0.98828,0.85156c0.049,0 0.09744,-0.00472 0.14844,-0.01172l1.97852,-0.29687c0.546,-0.082 0.9238,-0.59072 0.8418,-1.13672c-0.082,-0.545 -0.59067,-0.9138 -1.13867,-0.8418zM32,13.89648c1.54848,1.53497 3.10294,3.30234 4.61914,5.26758c-1.50922,-0.09825 -3.04373,-0.16406 -4.61914,-0.16406c-1.57609,0 -3.11126,0.06573 -4.62109,0.16406c1.51655,-1.96569 3.07226,-3.73236 4.62109,-5.26758zM53.83203,15.60547c-0.549,-0.031 -1.02564,0.38845 -1.05664,0.93945c-0.033,0.552 0.38941,1.02564 0.94141,1.05664l1.99609,0.11523c0.02,0.001 0.03859,0.00195 0.05859,0.00195c0.525,0 0.96509,-0.41236 0.99609,-0.94336c0.033,-0.552 -0.38745,-1.02369 -0.93945,-1.05469zM32,21c2.12696,0 4.19327,0.1043 6.18555,0.28711c1.15424,1.63371 2.27655,3.37122 3.33984,5.21289c1.06372,1.84242 2.00774,3.68283 2.8457,5.5c-0.83796,1.81717 -1.78198,3.65758 -2.8457,5.5c-1.06329,1.84167 -2.18561,3.57918 -3.33984,5.21289c-1.99228,0.18281 -4.05859,0.28711 -6.18555,0.28711c-2.12696,0 -4.19327,-0.1043 -6.18555,-0.28711c-1.15475,-1.6343 -2.27806,-3.37045 -3.3418,-5.21289c-1.06372,-1.84242 -2.00579,-3.68478 -2.84375,-5.50195c0.83753,-1.81591 1.78079,-3.65695 2.84375,-5.49805c1.06374,-1.84245 2.18705,-3.57859 3.3418,-5.21289c1.99228,-0.18281 4.05859,-0.28711 6.18555,-0.28711zM23.19336,21.58008c-0.84005,1.25835 -1.66511,2.55503 -2.45312,3.91992c-0.78744,1.36388 -1.49668,2.72634 -2.16602,4.08203c-0.9439,-2.29579 -1.69685,-4.52422 -2.25195,-6.63281c2.10385,-0.57365 4.41064,-1.03866 6.87109,-1.36914zM40.80469,21.58008c2.46118,0.3305 4.76864,0.79534 6.87305,1.36914c-0.55511,2.10865 -1.30803,4.33891 -2.25195,6.63477c-0.66977,-1.35674 -1.37991,-2.71903 -2.16797,-4.08398c-0.78774,-1.3644 -1.61339,-2.66198 -2.45312,-3.91992zM14.40234,23.52539c0.7121,2.6956 1.7339,5.5513 3.03516,8.47461c-1.3013,2.9234 -2.32305,5.77894 -3.03516,8.47461c-0.88292,-0.28725 -1.7369,-0.58779 -2.52539,-0.91406c-2.54096,-1.05143 -4.56114,-2.29521 -5.89844,-3.60352c-1.3373,-1.30831 -1.97852,-2.62669 -1.97852,-3.95703c0,-1.33034 0.64121,-2.64872 1.97852,-3.95703c1.3373,-1.30831 3.35748,-2.55208 5.89844,-3.60352c0.78849,-0.32627 1.64247,-0.62681 2.52539,-0.91406zM49.5957,23.52539c0.88356,0.28741 1.73833,0.58757 2.52734,0.91406c2.54096,1.05143 4.56114,2.29521 5.89844,3.60352c1.3373,1.30831 1.97852,2.62669 1.97852,3.95703c0,1.33034 -0.64121,2.64872 -1.97852,3.95703c-1.3373,1.30831 -3.35748,2.55208 -5.89844,3.60352c-0.78849,0.32627 -1.64247,0.62681 -2.52539,0.91406c-0.712,-2.69577 -1.73583,-5.55104 -3.03711,-8.47461c1.30095,-2.92283 2.32318,-5.77944 3.03516,-8.47461zM32,25c-3.85415,0 -7,3.14585 -7,7c0,3.85415 3.14585,7 7,7c3.85415,0 7,-3.14585 7,-7c0,-3.85415 -3.14585,-7 -7,-7zM32,27c2.77327,0 5,2.22673 5,5c0,2.77327 -2.22673,5 -5,5c-2.77327,0 -5,-2.22673 -5,-5c0,-2.77327 2.22673,-5 5,-5zM45.42578,34.41602c0.94393,2.29586 1.69685,4.52612 2.25195,6.63477c-2.10441,0.5738 -4.41187,1.03864 -6.87305,1.36914c0.83973,-1.25794 1.66539,-2.55552 2.45312,-3.91992c0.78806,-1.36496 1.4982,-2.72724 2.16797,-4.08398zM18.57422,34.41797c0.66924,1.35546 1.37871,2.71838 2.16602,4.08203c0.78802,1.36489 1.61308,2.66157 2.45313,3.91992c-2.46045,-0.33048 -4.76724,-0.79549 -6.87109,-1.36914c0.55511,-2.10859 1.30805,-4.33702 2.25195,-6.63281zM15.86133,43.00195c2.69045,0.73117 5.67515,1.27457 8.85742,1.60938c1.88116,2.58856 3.84377,4.90279 5.82227,6.86719c-0.69029,0.62107 -1.37977,1.20875 -2.05664,1.72852c-2.18104,1.67482 -4.26668,2.80266 -6.06836,3.30664c-1.80168,0.50398 -3.26391,0.4015 -4.41602,-0.26367c-1.15211,-0.66517 -1.97508,-1.88107 -2.43945,-3.69336c-0.46438,-1.81229 -0.52983,-4.18391 -0.16992,-6.91016c0.11172,-0.84628 0.27792,-1.73594 0.4707,-2.64453zM48.13867,43.00195c0.19276,0.90848 0.35704,1.79834 0.46875,2.64453c0.35991,2.72625 0.29445,5.09786 -0.16992,6.91016c-0.46437,1.81229 -1.28539,3.02624 -2.4375,3.69141c-1.15211,0.66517 -2.61434,0.76961 -4.41602,0.26563c-1.80168,-0.50399 -3.88927,-1.63182 -6.07031,-3.30664c-0.67688,-0.51977 -1.36439,-1.10939 -2.05469,-1.73047c1.97836,-1.96451 3.94128,-4.27668 5.82227,-6.86523c3.18228,-0.3348 6.16697,-0.87821 8.85742,-1.60937zM8.61133,43.7168c-0.551,-0.074 -1.05105,0.31137 -1.12305,0.85938c-0.074,0.548 0.31137,1.05005 0.85937,1.12305l1.98242,0.26367c0.045,0.006 0.08881,0.00977 0.13281,0.00977c0.494,0 0.92423,-0.36714 0.99023,-0.86914c0.074,-0.548 -0.31137,-1.05005 -0.85937,-1.12305zM27.37891,44.83594c1.50983,0.09833 3.045,0.16406 4.62109,0.16406c1.57541,0 3.10992,-0.06581 4.61914,-0.16406c-1.51623,1.96528 -3.07063,3.73258 -4.61914,5.26758c-1.5488,-1.53518 -3.10458,-3.30194 -4.62109,-5.26758zM10.16016,48.81836l-1.99805,0.06836c-0.553,0.018 -0.9858,0.47925 -0.9668,1.03125c0.018,0.541 0.46205,0.9668 0.99805,0.9668c0.012,0 0.02516,0.001 0.03516,0l1.99805,-0.06836c0.553,-0.018 0.9858,-0.47925 0.9668,-1.03125c-0.018,-0.553 -0.4822,-1.0038 -1.0332,-0.9668zM11.02539,53.51172c-0.12934,-0.01322 -0.26203,-0.00048 -0.39453,0.04102l-1.91406,0.58398c-0.528,0.161 -0.82506,0.72005 -0.66406,1.24805c0.131,0.431 0.52803,0.70898 0.95703,0.70898c0.096,0 0.19302,-0.01492 0.29102,-0.04492l1.91406,-0.58398c0.528,-0.161 0.82606,-0.72005 0.66406,-1.24805c-0.12,-0.396 -0.46548,-0.66542 -0.85351,-0.70508zM13.14453,57.55273c-0.25513,-0.01913 -0.51756,0.05733 -0.72656,0.23633l-1.51758,1.30469c-0.419,0.359 -0.46642,0.99116 -0.10742,1.41016c0.198,0.231 0.47877,0.34766 0.75976,0.34766c0.231,0 0.46239,-0.08019 0.65039,-0.24219l1.51758,-1.30273c0.419,-0.359 0.46642,-0.99116 0.10742,-1.41016c-0.1805,-0.2095 -0.42847,-0.32462 -0.68359,-0.34375z"></path></g></g>
</g>
<g id='typescript'>

<g fill="#fdc435" fill-rule="nonzero" stroke="none" stroke-width="1" stroke-linecap="butt" stroke-linejoin="miter" stroke-miterlimit="10" stroke-dasharray="" stroke-dashoffset="0" font-family="none" font-weight="none" font-size="none" text-anchor="none" style="mix-blend-mode: normal"><g transform="scale(5.12,5.12)"><path d="M5,4c-0.55226,0.00006 -0.99994,0.44774 -1,1v40c0.00006,0.55226 0.44774,0.99994 1,1h40c0.55226,-0.00006 0.99994,-0.44774 1,-1v-40c-0.00006,-0.55226 -0.44774,-0.99994 -1,-1zM6,6h38v38h-38zM15,23v3.44531h5v15.55469h4v-15.55469h5v-3.44531zM36.69141,23.00977c-3.11462,-0.0124 -6.67383,0.93145 -6.67383,5.31445c0,5.73 7.7207,5.73141 7.7207,8.31641c0,0.245 0.10391,2.02539 -2.62109,2.02539c-2.725,0 -4.99609,-1.71289 -4.99609,-1.71289v4.1582c0,0 11.88086,3.84273 11.88086,-4.82227c-0.001,-5.625 -7.79297,-5.34367 -7.79297,-8.13867c0,-1.083 0.76939,-2.0957 2.90039,-2.0957c2.131,0 4.01758,1.25781 4.01758,1.25781l0.14063,-3.70508c0,0 -2.15369,-0.58801 -4.57617,-0.59766z"></path></g></g>
</g>
<g id='vscode'>

<g fill="#none" fill-rule="nonzero" stroke="none" stroke-width="1" stroke-linecap="butt" stroke-linejoin="miter" stroke-miterlimit="10" stroke-dasharray="" stroke-dashoffset="0" font-family="none" font-weight="none" font-size="none" text-anchor="none" style="mix-blend-mode: normal"><g transform="scale(4,4)"><path d="M44.16211,5.01758c-0.13005,0.00946 -0.25985,0.02827 -0.38867,0.05664c-0.51527,0.11348 -1.00889,0.38058 -1.39844,0.81641l-17.54102,19.62109c-2.13289,-1.73225 -4.50173,-3.656 -6.19727,-5.0332c-1.5742,-1.27864 -2.8914,-2.34779 -3.81836,-3.10156c-0.46348,-0.37689 -0.82943,-0.675 -1.08203,-0.88086c-0.1263,-0.10293 -0.22416,-0.18162 -0.29102,-0.23633c-0.03105,-0.02541 -0.05356,-0.0448 -0.07031,-0.05859l-0.00195,-0.00195h-0.00195c-0.38495,-0.34646 -0.90434,-0.5625 -1.46289,-0.5625c-0.4013,0 -0.5268,0.08577 -0.75391,0.16797c-0.22711,0.08219 -0.47751,0.18725 -0.75391,0.31055c-0.55279,0.24659 -1.20384,0.56376 -1.83203,0.88086c-1.25638,0.6342 -2.42383,1.26563 -2.42383,1.26563l0.00781,0.01367c-0.6795,0.3722 -1.15234,1.08618 -1.15234,1.90625v24.81836c0,0.79804 0.44754,1.49656 1.09766,1.87695c0.04491,0.03391 0.09261,0.06396 0.14258,0.08984c0,0 1.08519,0.55169 2.22656,1.12695c0.57069,0.28763 1.15539,0.58087 1.62695,0.81445c0.47156,0.23358 0.75023,0.37836 0.99805,0.47852c0.00065,0 0.0013,0 0.00195,0c0.24907,0.09999 0.52582,0.1582 0.81445,0.1582c0.20492,0 0.37964,-0.09639 0.57031,-0.15039c0.17742,0.00138 0.35201,-0.04445 0.50586,-0.13281c0.00001,-0.00001 0.00526,-0.00361 0.00586,-0.00391c0.0023,-0.0013 0.00551,-0.00059 0.00781,-0.00195c0.04816,-0.02804 0.09389,-0.06005 0.13672,-0.0957c0.02014,-0.01553 0.03969,-0.03181 0.05859,-0.04883c0.02578,-0.02118 0.05273,-0.04383 0.0918,-0.07617c0.09631,-0.07974 0.23404,-0.19479 0.4082,-0.33984c0.34832,-0.29011 0.84313,-0.702 1.43359,-1.19531c1.18094,-0.98662 2.74767,-2.29836 4.31445,-3.60937c2.77755,-2.32413 4.95485,-4.1471 5.54883,-4.64453c6.58706,7.14932 13.7305,14.90492 17.41406,18.9043c0.77097,0.83686 1.93222,1.025 2.85547,0.6875c0.0747,-0.02024 0.14679,-0.04908 0.21484,-0.08594l11.62891,-5.98828c1.163,-0.59967 1.89648,-1.80282 1.89648,-3.11133v-35.3125c0,-1.31114 -0.73646,-2.51691 -1.90234,-3.11523l-11.42969,-5.86328c-0.04581,-0.02666 -0.09352,-0.04857 -0.14062,-0.07227l-0.0918,-0.04687c-0.04037,-0.02105 -0.08214,-0.03933 -0.125,-0.05469c-0.00539,-0.0021 -0.01022,-0.00575 -0.01562,-0.00781c-0.01457,-0.00556 -0.03023,-0.00838 -0.04492,-0.01367c-0.0026,-0.00066 -0.00521,-0.00131 -0.00781,-0.00195c-0.33897,-0.12084 -0.70881,-0.17348 -1.08008,-0.14648zM44.39844,7c0.05695,0.00779 0.11405,0.02555 0.17187,0.04688l0.19141,0.0957c0.1462,0.10315 0.23828,0.26013 0.23828,0.51367v12.21094l-13.3418,11.18555c-0.75119,-0.60976 -0.75596,-0.61342 -1.51367,-1.22852c-1.36358,-1.10693 -2.42748,-1.97203 -3.75586,-3.05078l17.47656,-19.55078c0.17318,-0.19376 0.351,-0.24757 0.5332,-0.22266zM47,8.29297l9.18359,4.71094c0.50211,0.25768 0.81641,0.77107 0.81641,1.33594v35.3125c0,0.56349 -0.3115,1.07565 -0.8125,1.33398l-9.1875,4.73047zM52,16c-0.36064,-0.0051 -0.69608,0.18438 -0.87789,0.49587c-0.18181,0.3115 -0.18181,0.69676 0,1.00825c0.18181,0.3115 0.51725,0.50097 0.87789,0.49587h2c0.36064,0.0051 0.69608,-0.18438 0.87789,-0.49587c0.18181,-0.3115 0.18181,-0.69676 0,-1.00825c-0.18181,-0.3115 -0.51725,-0.50097 -0.87789,-0.49587zM11.95703,17.65625c0.026,0.00796 0.05486,0.01012 0.07617,0.0293c0.06703,0.06062 0.04546,0.03903 0.06445,0.05469c0.02023,0.01668 0.0476,0.03823 0.08203,0.06641c0.06887,0.05636 0.16612,0.13686 0.29297,0.24023c0.25369,0.20675 0.62022,0.50569 1.08399,0.88281c0.92752,0.75423 2.24401,1.8228 3.81836,3.10156c1.89194,1.53672 4.50265,3.65574 6.91602,5.61523c0.00834,0.0073 0.01681,0.01446 0.02539,0.02148c1.59484,1.29491 2.91025,2.36296 4.56836,3.70898c8.0678,6.5493 15.57068,12.6381 16.11523,13.08008v11.89258c0,0.34298 -0.17024,0.51365 -0.41406,0.60938c-0.24382,0.09572 -0.47933,0.08734 -0.71094,-0.16406c-4.42054,-4.79954 -13.20671,-14.33843 -20.89844,-22.68555c-0.81147,-0.88061 -1.33649,-1.44975 -2.11719,-2.29687c-0.05311,-0.07757 -0.11689,-0.14727 -0.18945,-0.20703c-2.83682,-3.07817 -5.71185,-6.19845 -7.72656,-8.38281c-1.30817,-1.41833 -2.37792,-2.57641 -3.12305,-3.38281c-0.33373,-0.36117 -0.57887,-0.62416 -0.77539,-0.83594c0.20865,-0.10751 0.20612,-0.11178 0.42578,-0.22266c0.61244,-0.30915 1.24403,-0.61675 1.74414,-0.83984c0.25006,-0.11155 0.46773,-0.20106 0.61914,-0.25586c0.05066,-0.01834 0.08557,-0.02207 0.12305,-0.0293zM7.18164,20c0.03768,0 0.0629,0.01406 0.08789,0.0293c0.05095,0.05459 0.12462,0.13272 0.2207,0.23633c0.19873,0.2143 0.48917,0.52888 0.86133,0.93164c0.60976,0.6599 1.55825,1.68897 2.55664,2.77148v17.13281l-3.53906,3.96289l-0.04687,0.05078c-0.04112,0.04602 -0.08413,0.06641 -0.14062,0.06641c-0.11191,-0.00001 -0.18164,-0.07054 -0.18164,-0.18164v-24.81836c0,-0.11293 0.06871,-0.18164 0.18164,-0.18164zM52,21c-0.36064,-0.0051 -0.69608,0.18438 -0.87789,0.49587c-0.18181,0.3115 -0.18181,0.69676 0,1.00825c0.18181,0.3115 0.51725,0.50097 0.87789,0.49587h2c0.36064,0.0051 0.69608,-0.18438 0.87789,-0.49587c0.18181,-0.3115 0.18181,-0.69676 0,-1.00825c-0.18181,-0.3115 -0.51725,-0.50097 -0.87789,-0.49587zM45,22.47852v19.40234c-1.22132,-0.99104 -6.08073,-4.93382 -11.76172,-9.54492zM52,26c-0.36064,-0.0051 -0.69608,0.18438 -0.87789,0.49587c-0.18181,0.3115 -0.18181,0.69676 0,1.00825c0.18181,0.3115 0.51725,0.50097 0.87789,0.49587h2c0.36064,0.0051 0.69608,-0.18438 0.87789,-0.49587c0.18181,-0.3115 0.18181,-0.69676 0,-1.00825c-0.18181,-0.3115 -0.51725,-0.50097 -0.87789,-0.49587zM12.9082,26.13672c1.74175,1.88906 3.67902,3.9913 5.77148,6.26172l-5.77148,6.46289zM52,31c-0.36064,-0.0051 -0.69608,0.18438 -0.87789,0.49587c-0.18181,0.3115 -0.18181,0.69676 0,1.00825c0.18181,0.3115 0.51725,0.50097 0.87789,0.49587h2c0.36064,0.0051 0.69608,-0.18438 0.87789,-0.49587c0.18181,-0.3115 0.18181,-0.69676 0,-1.00825c-0.18181,-0.3115 -0.51725,-0.50097 -0.87789,-0.49587zM20.04102,33.87695c0.54746,0.59406 0.90361,0.97883 1.46484,1.58789c0.78277,0.84946 1.32726,1.44069 2.12695,2.30859c-0.6427,0.53823 -2.73417,2.2909 -5.47461,4.58398c-1.56659,1.31086 -3.1343,2.62145 -4.31445,3.60742c-0.59008,0.49298 -1.0829,0.90452 -1.42969,1.19336c-0.17339,0.14442 -0.31096,0.25867 -0.4043,0.33594c-0.01887,0.01562 -0.02777,0.02261 -0.04297,0.03516c-0.01803,0.0066 -0.03411,0.01563 -0.05859,0.01563c-0.02469,0 -0.04434,-0.0042 -0.06836,-0.01367h-0.00195c0.02957,0.01186 -0.39431,-0.18466 -0.85742,-0.41406c-0.46397,-0.22982 -1.04485,-0.5221 -1.61328,-0.80859c-0.15119,-0.0762 -0.14804,-0.07618 -0.29492,-0.15039zM52,36c-0.36064,-0.0051 -0.69608,0.18438 -0.87789,0.49587c-0.18181,0.3115 -0.18181,0.69676 0,1.00825c0.18181,0.3115 0.51725,0.50097 0.87789,0.49587h2c0.36064,0.0051 0.69608,-0.18438 0.87789,-0.49587c0.18181,-0.3115 0.18181,-0.69676 0,-1.00825c-0.18181,-0.3115 -0.51725,-0.50097 -0.87789,-0.49587zM52,41c-0.36064,-0.0051 -0.69608,0.18438 -0.87789,0.49587c-0.18181,0.3115 -0.18181,0.69676 0,1.00825c0.18181,0.3115 0.51725,0.50097 0.87789,0.49587h2c0.36064,0.0051 0.69608,-0.18438 0.87789,-0.49587c0.18181,-0.3115 0.18181,-0.69676 0,-1.00825c-0.18181,-0.3115 -0.51725,-0.50097 -0.87789,-0.49587zM52,46c-0.36064,-0.0051 -0.69608,0.18438 -0.87789,0.49587c-0.18181,0.3115 -0.18181,0.69676 0,1.00825c0.18181,0.3115 0.51725,0.50097 0.87789,0.49587h2c0.36064,0.0051 0.69608,-0.18438 0.87789,-0.49587c0.18181,-0.3115 0.18181,-0.69676 0,-1.00825c-0.18181,-0.3115 -0.51725,-0.50097 -0.87789,-0.49587z"></path></g></g>
</g>

<g id='styledcomponents'>
<path d="M99.2292 0L98.3642 4.47881C97.0264 12.9668 97.5108 15.3952 101.178 18.5452L104.719 21.4548L101.051 37.6976C98.8602 47.3883 96.173 55.5097 94.4661 58.1787C93.0014 60.4811 91.2946 63.8717 90.9255 65.693C90.3143 67.8694 88.2384 70.0573 85.0668 71.9931C82.2643 73.5739 76.7631 77.8121 72.865 81.2142C69.7511 83.9977 67.606 85.7045 66.4411 86.4376L62.6353 89.4273C61.4128 91.3746 60.7208 92.9439 60.4556 94.1352C60.1903 95.3608 60.3402 96.1741 60.7324 96.7697C61.1129 97.3425 61.7703 97.7434 62.6699 97.9954C63.7348 98.2433 64.8309 98.3321 65.9222 98.2589C68.391 98.0913 70.8346 97.6612 73.211 96.9759C74.0183 96.7583 74.6526 96.5521 75.2062 96.3688C76.0596 95.3265 78.0317 93.3562 81.5262 89.9313C90.7987 80.8476 94.3393 75.8763 90.6833 77.2165C89.334 77.6976 89.9452 76.4834 92.2633 74.055C97.1533 69.3242 99.9558 62.1764 105.815 39.7594C110.451 22.0619 110.451 21.8099 113.865 21.8099C115.468 21.8099 120 22.0848 120 22.0848V0H109.597H99.2292ZM58.149 37.858C54.7814 37.8351 47.5387 42.9324 25.8568 60.5155C24.9226 62.7262 24.8419 64.2497 25.2686 65.2348C25.5454 65.9106 26.0529 66.3803 26.7564 66.7239C27.4484 67.0676 28.3479 67.2738 29.3398 67.3539C31.3119 67.5258 33.6415 67.2165 35.5214 66.8499L36.79 66.5636C37.2243 65.9852 37.7944 65.5211 38.4508 65.2119C39.7886 64.4788 45.4051 59.3929 51.0216 53.9404C60.9053 43.9977 63.2235 39.5074 59.1985 38.0527C58.8683 37.9222 58.5043 37.8561 58.149 37.858ZM83.4753 44.7652C80.5113 44.8454 75.1716 48.2589 66.026 55.5097C61.4359 59.2096 58.5296 61.2027 56.9726 61.6151L50.9294 66.3574C48.6574 70.4811 48.3229 73.0355 48.9226 74.4444C49.0727 74.792 49.2907 75.1066 49.5638 75.37C49.837 75.6335 50.16 75.8406 50.5142 75.9794C51.3953 76.325 52.3348 76.4999 53.2821 76.4948C55.5457 76.4709 57.7958 76.1434 59.9712 75.5212C61.1049 75.219 62.2247 74.8674 63.3273 74.4673L63.6617 74.3299L64.2729 74.0092C65.4262 72.5315 68.0788 69.748 71.4003 66.5407C81.8952 56.4834 87.2581 49.3356 86.1624 46.6667C85.6665 45.3723 84.8131 44.7194 83.4753 44.7652ZM55.5195 57.1363C54.666 57.2279 52.7516 58.6942 49.3032 61.6953C44.321 66.071 38.889 68.5911 37.0091 67.4685C36.5723 67.5665 36.134 67.6582 35.6944 67.7434C33.7799 68.1214 31.3926 68.4307 29.259 68.2589C28.2537 68.1984 27.2684 67.9537 26.3527 67.5372C25.489 67.145 24.7998 66.4523 24.4152 65.5899C23.9885 64.559 23.9885 63.276 24.4729 61.638L16.9765 67.7549L0.0115354 81.6953V104.296L55.6002 60.8018C55.5894 60.3256 55.6516 59.8505 55.7847 59.3929C56.2114 57.858 56.1884 57.079 55.5195 57.1478V57.1363ZM79.4387 64.4559C78.5968 64.4559 77.1898 65.6357 74.9409 68.0069C71.8847 71.2486 67.0755 74.3872 64.5267 75.0286L64.1346 75.2348C63.7161 75.4064 63.2931 75.5669 62.8659 75.7159C62.174 75.945 61.2744 76.2199 60.2364 76.4948C58.1605 77.0561 55.5771 77.5716 53.2706 77.5143C52.1831 77.5129 51.1062 77.3029 50.099 76.8958C49.1497 76.5071 48.389 75.768 47.9769 74.8339C47.308 73.2417 47.5733 71.008 49.038 67.835L0 106.197V120H21.5435L67.2369 84.3528C68.4248 83.047 70.2124 81.26 72.6228 79.0263C79.0812 73.0813 80.5459 71.0309 80.5459 67.9954C80.5459 65.6357 80.2806 64.4444 79.4387 64.4444V64.4559ZM90.3143 86.7927L86.4046 90.6644C84.2134 92.7262 80.3037 95.2692 77.6281 96.3574L77.0976 96.5865L77.063 96.6438L76.9476 96.7583C76.8438 96.8385 76.7977 96.8499 76.717 96.8843C75.6489 97.2858 74.5637 97.6413 73.4647 97.9496C71.0211 98.6561 68.5076 99.0977 65.9683 99.2669C64.7677 99.3433 63.5623 99.2391 62.3931 98.9576C61.3784 98.7357 60.4826 98.148 59.8789 97.3081C59.3253 96.4605 59.1639 95.3264 59.4753 93.929C59.7229 92.934 60.0908 91.9725 60.5709 91.0653L23.7001 120H72.7381L78.5968 113.333C86.6468 104.009 90.3143 97.3425 90.3143 91.638V86.7927Z" fill="#FDC435"/>
</g>


<g id='gmail'>
<g fill="#fdc435" fill-rule="nonzero" stroke="none" stroke-width="1" stroke-linecap="butt" stroke-linejoin="miter" stroke-miterlimit="10" stroke-dasharray="" stroke-dashoffset="0" font-family="none" font-weight="none" font-size="none" text-anchor="none" style="mix-blend-mode: normal"><g transform="scale(5.12,5.12)"><path d="M12,23.403v-0.013v-13.001l-0.12,-0.089h-0.01l-2.73,-2.02c-1.67,-1.24 -4.05,-1.18 -5.53,0.28c-0.99,0.98 -1.61,2.34 -1.61,3.85v3.602zM38,23.39v0.013l10,-7.391v-3.602c0,-1.49 -0.6,-2.85 -1.58,-3.83c-1.46,-1.457 -3.765,-1.628 -5.424,-0.403l-2.876,2.123l-0.12,0.089zM14,24.868l10.406,7.692c0.353,0.261 0.836,0.261 1.189,0l10.405,-7.692v-13.001l-11,8.133l-11,-8.133zM38,25.889v15.111c0,0.552 0.448,1 1,1h6.5c1.381,0 2.5,-1.119 2.5,-2.5v-21.003zM12,25.889l-10,-7.392v21.003c0,1.381 1.119,2.5 2.5,2.5h6.5c0.552,0 1,-0.448 1,-1z"></path></g></g>
</g>
<g id='telegram'>

<g fill="#fdc435" fill-rule="nonzero" stroke="none" stroke-width="1" stroke-linecap="butt" stroke-linejoin="miter" stroke-miterlimit="10" stroke-dasharray="" stroke-dashoffset="0" font-family="none" font-weight="none" font-size="none" text-anchor="none" style="mix-blend-mode: normal"><g transform="scale(5.12,5.12)"><path d="M46.137,6.552c-0.75,-0.636 -1.928,-0.727 -3.146,-0.238h-0.002c-1.281,0.514 -36.261,15.518 -37.685,16.131c-0.259,0.09 -2.521,0.934 -2.288,2.814c0.208,1.695 2.026,2.397 2.248,2.478l8.893,3.045c0.59,1.964 2.765,9.21 3.246,10.758c0.3,0.965 0.789,2.233 1.646,2.494c0.752,0.29 1.5,0.025 1.984,-0.355l5.437,-5.043l8.777,6.845l0.209,0.125c0.596,0.264 1.167,0.396 1.712,0.396c0.421,0 0.825,-0.079 1.211,-0.237c1.315,-0.54 1.841,-1.793 1.896,-1.935l6.556,-34.077c0.4,-1.82 -0.156,-2.746 -0.694,-3.201zM22,32l-3,8l-3,-10l23,-17z"></path></g></g>
</g>
<g id='instagram'>
<g fill="#fdc435" fill-rule="nonzero" stroke="none" stroke-width="1" stroke-linecap="butt" stroke-linejoin="miter" stroke-miterlimit="10" stroke-dasharray="" stroke-dashoffset="0" font-family="none" font-weight="none" font-size="none" text-anchor="none" style="mix-blend-mode: normal"><g transform="scale(5.12,5.12)"><path d="M16,3c-7.17,0 -13,5.83 -13,13v18c0,7.17 5.83,13 13,13h18c7.17,0 13,-5.83 13,-13v-18c0,-7.17 -5.83,-13 -13,-13zM37,11c1.1,0 2,0.9 2,2c0,1.1 -0.9,2 -2,2c-1.1,0 -2,-0.9 -2,-2c0,-1.1 0.9,-2 2,-2zM25,14c6.07,0 11,4.93 11,11c0,6.07 -4.93,11 -11,11c-6.07,0 -11,-4.93 -11,-11c0,-6.07 4.93,-11 11,-11zM25,16c-4.96,0 -9,4.04 -9,9c0,4.96 4.04,9 9,9c4.96,0 9,-4.04 9,-9c0,-4.96 -4.04,-9 -9,-9z"></path></g></g>
</g>

<g id='yellowbg'>


  <path fill-rule="evenodd" clip-rule="evenodd" d="M426.755 -247.339C526.01 -242.623 630.416 -205.737 691.019 -128.942C747.053 -57.9359 709.403 42.8884 725.408 131.114C738.276 202.044 786.302 264.961 775.404 336.204C763.332 415.132 724.842 490.453 662.532 542.186C597.271 596.368 510.835 641.895 426.755 625.671C345.261 609.947 319.875 506.823 250.249 462.635C174.069 414.287 41.2528 440.785 6.43092 358.913C-27.6816 278.71 83.9568 208.257 106.308 124.209C131.067 31.1084 79.6084 -81.3667 143.094 -154.976C208.865 -231.236 324.689 -252.189 426.755 -247.339Z" fill="#FDC435" />
</g>

<g id='arrowdown'>

  <circle cx="30" cy="30" r="30" transform="rotate(-90 30 30)" fill="#FDC435"/>
<path d="M19.5 31.5L30 42L40.5 31.5" stroke="#E4E4E4" stroke-width="2" stroke-linecap="round" stroke-linejoin="round"/>
<path d="M30 42L30 18" stroke="#E4E4E4" stroke-width="2" stroke-linecap="round" stroke-linejoin="round"/>


</g>

<g id='arrowup'>
<circle cx="30" cy="30" r="30" transform="rotate(90 30 30)" fill="#FDC435"/>
<path d="M40.5 28.5L30 18L19.5 28.5" stroke="#E4E4E4" stroke-width="2" stroke-linecap="round" stroke-linejoin="round"/>
<path d="M30 18L30 42" stroke="#E4E4E4" stroke-width="2" stroke-linecap="round" stroke-linejoin="round"/>

</g>

<g id="footer">
 
  <path fill-rule="evenodd" clip-rule="evenodd" d="M0 258L60 229.333C120 200.667 240 143.333 360 150.5C480 157.667 600 229.333 720 229.333C840 229.333 960 157.667 1080 107.5C1200 57.3333 1320 28.6667 1380 14.3333L1440 0V344H1380C1320 344 1200 344 1080 344C960 344 840 344 720 344C600 344 480 344 360 344C240 344 120 344 60 344H0V258Z" fill="#FDC435"/>


      
  </svg>